<mxfile host="Electron" modified="2024-01-30T03:14:03.758Z" agent="Mozilla/5.0 (X11; Linux x86_64) AppleWebKit/537.36 (KHTML, like Gecko) draw.io/22.1.21 Chrome/120.0.6099.109 Electron/28.1.0 Safari/537.36" etag="S2KzZf8kbMZoMsH-R1jT" version="22.1.21" type="device">
  <diagram name="0.5.0" id="24kAH2-G0vzrV915E8B4">
    <mxGraphModel dx="350" dy="213" grid="1" gridSize="10" guides="1" tooltips="1" connect="1" arrows="1" fold="1" page="1" pageScale="1" pageWidth="850" pageHeight="1100" math="0" shadow="0">
      <root>
        <mxCell id="0" />
        <mxCell id="1" parent="0" />
        <mxCell id="I72WQZ2WmEDWENsLwYum-3" value="" style="rounded=0;whiteSpace=wrap;html=1;fillColor=#f5f5f5;strokeColor=#666666;fontColor=#333333;" vertex="1" parent="1">
          <mxGeometry x="120" y="120" width="540" height="440" as="geometry" />
        </mxCell>
        <mxCell id="I72WQZ2WmEDWENsLwYum-4" value="rd_idx" style="text;html=1;strokeColor=none;fillColor=none;align=center;verticalAlign=middle;whiteSpace=wrap;rounded=0;" vertex="1" parent="1">
          <mxGeometry x="20" y="340" width="60" height="30" as="geometry" />
        </mxCell>
        <mxCell id="I72WQZ2WmEDWENsLwYum-123" style="edgeStyle=orthogonalEdgeStyle;rounded=0;orthogonalLoop=1;jettySize=auto;html=1;exitX=1;exitY=0.5;exitDx=0;exitDy=0;entryX=0.5;entryY=0;entryDx=0;entryDy=0;fillColor=#dae8fc;strokeColor=#6c8ebf;" edge="1" parent="1" source="I72WQZ2WmEDWENsLwYum-5" target="I72WQZ2WmEDWENsLwYum-99">
          <mxGeometry relative="1" as="geometry">
            <Array as="points">
              <mxPoint x="600" y="159" />
            </Array>
          </mxGeometry>
        </mxCell>
        <mxCell id="I72WQZ2WmEDWENsLwYum-5" value="rs1_idx" style="text;html=1;strokeColor=none;fillColor=none;align=center;verticalAlign=middle;whiteSpace=wrap;rounded=0;" vertex="1" parent="1">
          <mxGeometry x="20" y="144" width="60" height="30" as="geometry" />
        </mxCell>
        <mxCell id="I72WQZ2WmEDWENsLwYum-124" style="edgeStyle=orthogonalEdgeStyle;rounded=0;orthogonalLoop=1;jettySize=auto;html=1;exitX=1;exitY=0.5;exitDx=0;exitDy=0;entryX=0.5;entryY=0;entryDx=0;entryDy=0;fillColor=#d5e8d4;strokeColor=#82b366;" edge="1" parent="1" source="I72WQZ2WmEDWENsLwYum-6" target="I72WQZ2WmEDWENsLwYum-110">
          <mxGeometry relative="1" as="geometry">
            <Array as="points">
              <mxPoint x="590" y="175" />
              <mxPoint x="590" y="350" />
              <mxPoint x="600" y="350" />
            </Array>
          </mxGeometry>
        </mxCell>
        <mxCell id="I72WQZ2WmEDWENsLwYum-6" value="rs2_idx" style="text;html=1;strokeColor=none;fillColor=none;align=center;verticalAlign=middle;whiteSpace=wrap;rounded=0;" vertex="1" parent="1">
          <mxGeometry x="20" y="160" width="60" height="30" as="geometry" />
        </mxCell>
        <mxCell id="I72WQZ2WmEDWENsLwYum-7" value="rd_wen" style="text;html=1;strokeColor=none;fillColor=none;align=center;verticalAlign=middle;whiteSpace=wrap;rounded=0;" vertex="1" parent="1">
          <mxGeometry x="20" y="370" width="60" height="30" as="geometry" />
        </mxCell>
        <mxCell id="I72WQZ2WmEDWENsLwYum-8" value="&lt;font style=&quot;font-size: 24px;&quot;&gt;RF&lt;/font&gt;" style="text;html=1;strokeColor=none;fillColor=none;align=center;verticalAlign=middle;whiteSpace=wrap;rounded=0;" vertex="1" parent="1">
          <mxGeometry x="112" y="122" width="60" height="30" as="geometry" />
        </mxCell>
        <mxCell id="I72WQZ2WmEDWENsLwYum-9" value="" style="rounded=0;whiteSpace=wrap;html=1;" vertex="1" parent="1">
          <mxGeometry x="150" y="260" width="70" height="250" as="geometry" />
        </mxCell>
        <mxCell id="I72WQZ2WmEDWENsLwYum-12" style="edgeStyle=orthogonalEdgeStyle;rounded=0;orthogonalLoop=1;jettySize=auto;html=1;exitX=1;exitY=0.5;exitDx=0;exitDy=0;" edge="1" parent="1" source="I72WQZ2WmEDWENsLwYum-7">
          <mxGeometry relative="1" as="geometry">
            <mxPoint x="150" y="385" as="targetPoint" />
          </mxGeometry>
        </mxCell>
        <mxCell id="I72WQZ2WmEDWENsLwYum-13" value="Binary To&lt;br style=&quot;border-color: var(--border-color);&quot;&gt;One Hot&lt;br style=&quot;border-color: var(--border-color);&quot;&gt;Decoder" style="text;html=1;strokeColor=none;fillColor=none;align=center;verticalAlign=middle;whiteSpace=wrap;rounded=0;" vertex="1" parent="1">
          <mxGeometry x="150" y="374" width="60" height="30" as="geometry" />
        </mxCell>
        <mxCell id="I72WQZ2WmEDWENsLwYum-14" value="0" style="text;html=1;strokeColor=none;fillColor=none;align=center;verticalAlign=middle;whiteSpace=wrap;rounded=0;" vertex="1" parent="1">
          <mxGeometry x="180" y="265" width="60" height="30" as="geometry" />
        </mxCell>
        <mxCell id="I72WQZ2WmEDWENsLwYum-21" value="" style="group" vertex="1" connectable="0" parent="1">
          <mxGeometry x="330" y="265" width="90" height="61" as="geometry" />
        </mxCell>
        <mxCell id="I72WQZ2WmEDWENsLwYum-20" value="" style="group" vertex="1" connectable="0" parent="I72WQZ2WmEDWENsLwYum-21">
          <mxGeometry x="20" width="70" height="60" as="geometry" />
        </mxCell>
        <mxCell id="I72WQZ2WmEDWENsLwYum-15" value="x1" style="rounded=0;whiteSpace=wrap;html=1;" vertex="1" parent="I72WQZ2WmEDWENsLwYum-20">
          <mxGeometry width="50" height="60" as="geometry" />
        </mxCell>
        <mxCell id="I72WQZ2WmEDWENsLwYum-16" value="" style="triangle;whiteSpace=wrap;html=1;direction=south;" vertex="1" parent="I72WQZ2WmEDWENsLwYum-20">
          <mxGeometry x="15" width="20" height="20" as="geometry" />
        </mxCell>
        <mxCell id="I72WQZ2WmEDWENsLwYum-19" value="Q" style="text;html=1;strokeColor=none;fillColor=none;align=center;verticalAlign=middle;whiteSpace=wrap;rounded=0;movable=1;resizable=1;rotatable=1;deletable=1;editable=1;locked=0;connectable=1;" vertex="1" parent="I72WQZ2WmEDWENsLwYum-20">
          <mxGeometry x="10" width="60" height="30" as="geometry" />
        </mxCell>
        <mxCell id="I72WQZ2WmEDWENsLwYum-17" value="D" style="text;html=1;strokeColor=none;fillColor=none;align=center;verticalAlign=middle;whiteSpace=wrap;rounded=0;" vertex="1" parent="I72WQZ2WmEDWENsLwYum-21">
          <mxGeometry width="60" height="30" as="geometry" />
        </mxCell>
        <mxCell id="I72WQZ2WmEDWENsLwYum-18" value="WE" style="text;html=1;strokeColor=none;fillColor=none;align=center;verticalAlign=middle;whiteSpace=wrap;rounded=0;" vertex="1" parent="I72WQZ2WmEDWENsLwYum-21">
          <mxGeometry x="3" y="31" width="60" height="30" as="geometry" />
        </mxCell>
        <mxCell id="I72WQZ2WmEDWENsLwYum-31" value="" style="group" vertex="1" connectable="0" parent="1">
          <mxGeometry x="330" y="325" width="90" height="61" as="geometry" />
        </mxCell>
        <mxCell id="I72WQZ2WmEDWENsLwYum-32" value="" style="group" vertex="1" connectable="0" parent="I72WQZ2WmEDWENsLwYum-31">
          <mxGeometry x="20" width="70" height="60" as="geometry" />
        </mxCell>
        <mxCell id="I72WQZ2WmEDWENsLwYum-33" value="x2" style="rounded=0;whiteSpace=wrap;html=1;" vertex="1" parent="I72WQZ2WmEDWENsLwYum-32">
          <mxGeometry width="50" height="60" as="geometry" />
        </mxCell>
        <mxCell id="I72WQZ2WmEDWENsLwYum-34" value="" style="triangle;whiteSpace=wrap;html=1;direction=south;" vertex="1" parent="I72WQZ2WmEDWENsLwYum-32">
          <mxGeometry x="15" width="20" height="20" as="geometry" />
        </mxCell>
        <mxCell id="I72WQZ2WmEDWENsLwYum-35" value="Q" style="text;html=1;strokeColor=none;fillColor=none;align=center;verticalAlign=middle;whiteSpace=wrap;rounded=0;movable=1;resizable=1;rotatable=1;deletable=1;editable=1;locked=0;connectable=1;" vertex="1" parent="I72WQZ2WmEDWENsLwYum-32">
          <mxGeometry x="10" width="60" height="30" as="geometry" />
        </mxCell>
        <mxCell id="I72WQZ2WmEDWENsLwYum-36" value="D" style="text;html=1;strokeColor=none;fillColor=none;align=center;verticalAlign=middle;whiteSpace=wrap;rounded=0;" vertex="1" parent="I72WQZ2WmEDWENsLwYum-31">
          <mxGeometry width="60" height="30" as="geometry" />
        </mxCell>
        <mxCell id="I72WQZ2WmEDWENsLwYum-37" value="WE" style="text;html=1;strokeColor=none;fillColor=none;align=center;verticalAlign=middle;whiteSpace=wrap;rounded=0;" vertex="1" parent="I72WQZ2WmEDWENsLwYum-31">
          <mxGeometry x="3" y="31" width="60" height="30" as="geometry" />
        </mxCell>
        <mxCell id="I72WQZ2WmEDWENsLwYum-148" style="edgeStyle=orthogonalEdgeStyle;rounded=0;orthogonalLoop=1;jettySize=auto;html=1;exitX=1;exitY=0.5;exitDx=0;exitDy=0;fillColor=#ffe6cc;strokeColor=#d79b00;" edge="1" parent="I72WQZ2WmEDWENsLwYum-31">
          <mxGeometry relative="1" as="geometry">
            <mxPoint y="14.759999999999991" as="sourcePoint" />
            <mxPoint x="20" y="15" as="targetPoint" />
          </mxGeometry>
        </mxCell>
        <mxCell id="I72WQZ2WmEDWENsLwYum-38" value="" style="group" vertex="1" connectable="0" parent="1">
          <mxGeometry x="330" y="385" width="90" height="61" as="geometry" />
        </mxCell>
        <mxCell id="I72WQZ2WmEDWENsLwYum-39" value="" style="group" vertex="1" connectable="0" parent="I72WQZ2WmEDWENsLwYum-38">
          <mxGeometry x="20" width="70" height="60" as="geometry" />
        </mxCell>
        <mxCell id="I72WQZ2WmEDWENsLwYum-40" value="..." style="rounded=0;whiteSpace=wrap;html=1;" vertex="1" parent="I72WQZ2WmEDWENsLwYum-39">
          <mxGeometry width="50" height="60" as="geometry" />
        </mxCell>
        <mxCell id="I72WQZ2WmEDWENsLwYum-41" value="" style="triangle;whiteSpace=wrap;html=1;direction=south;" vertex="1" parent="I72WQZ2WmEDWENsLwYum-39">
          <mxGeometry x="15" width="20" height="20" as="geometry" />
        </mxCell>
        <mxCell id="I72WQZ2WmEDWENsLwYum-42" value="Q" style="text;html=1;strokeColor=none;fillColor=none;align=center;verticalAlign=middle;whiteSpace=wrap;rounded=0;movable=1;resizable=1;rotatable=1;deletable=1;editable=1;locked=0;connectable=1;" vertex="1" parent="I72WQZ2WmEDWENsLwYum-39">
          <mxGeometry x="10" width="60" height="30" as="geometry" />
        </mxCell>
        <mxCell id="I72WQZ2WmEDWENsLwYum-43" value="D" style="text;html=1;strokeColor=none;fillColor=none;align=center;verticalAlign=middle;whiteSpace=wrap;rounded=0;" vertex="1" parent="I72WQZ2WmEDWENsLwYum-38">
          <mxGeometry width="60" height="30" as="geometry" />
        </mxCell>
        <mxCell id="I72WQZ2WmEDWENsLwYum-44" value="WE" style="text;html=1;strokeColor=none;fillColor=none;align=center;verticalAlign=middle;whiteSpace=wrap;rounded=0;" vertex="1" parent="I72WQZ2WmEDWENsLwYum-38">
          <mxGeometry x="3" y="31" width="60" height="30" as="geometry" />
        </mxCell>
        <mxCell id="I72WQZ2WmEDWENsLwYum-149" style="edgeStyle=orthogonalEdgeStyle;rounded=0;orthogonalLoop=1;jettySize=auto;html=1;exitX=1;exitY=0.5;exitDx=0;exitDy=0;fillColor=#ffe6cc;strokeColor=#d79b00;" edge="1" parent="I72WQZ2WmEDWENsLwYum-38">
          <mxGeometry relative="1" as="geometry">
            <mxPoint y="14.759999999999991" as="sourcePoint" />
            <mxPoint x="20" y="15" as="targetPoint" />
          </mxGeometry>
        </mxCell>
        <mxCell id="I72WQZ2WmEDWENsLwYum-78" value="" style="group" vertex="1" connectable="0" parent="1">
          <mxGeometry x="330" y="445" width="90" height="61" as="geometry" />
        </mxCell>
        <mxCell id="I72WQZ2WmEDWENsLwYum-79" value="" style="group" vertex="1" connectable="0" parent="I72WQZ2WmEDWENsLwYum-78">
          <mxGeometry x="20" width="70" height="60" as="geometry" />
        </mxCell>
        <mxCell id="I72WQZ2WmEDWENsLwYum-80" value="x31" style="rounded=0;whiteSpace=wrap;html=1;" vertex="1" parent="I72WQZ2WmEDWENsLwYum-79">
          <mxGeometry width="50" height="60" as="geometry" />
        </mxCell>
        <mxCell id="I72WQZ2WmEDWENsLwYum-81" value="" style="triangle;whiteSpace=wrap;html=1;direction=south;" vertex="1" parent="I72WQZ2WmEDWENsLwYum-79">
          <mxGeometry x="15" width="20" height="20" as="geometry" />
        </mxCell>
        <mxCell id="I72WQZ2WmEDWENsLwYum-82" value="Q" style="text;html=1;strokeColor=none;fillColor=none;align=center;verticalAlign=middle;whiteSpace=wrap;rounded=0;movable=1;resizable=1;rotatable=1;deletable=1;editable=1;locked=0;connectable=1;" vertex="1" parent="I72WQZ2WmEDWENsLwYum-79">
          <mxGeometry x="10" width="60" height="30" as="geometry" />
        </mxCell>
        <mxCell id="I72WQZ2WmEDWENsLwYum-83" value="D" style="text;html=1;strokeColor=none;fillColor=none;align=center;verticalAlign=middle;whiteSpace=wrap;rounded=0;" vertex="1" parent="I72WQZ2WmEDWENsLwYum-78">
          <mxGeometry width="60" height="30" as="geometry" />
        </mxCell>
        <mxCell id="I72WQZ2WmEDWENsLwYum-84" value="WE" style="text;html=1;strokeColor=none;fillColor=none;align=center;verticalAlign=middle;whiteSpace=wrap;rounded=0;" vertex="1" parent="I72WQZ2WmEDWENsLwYum-78">
          <mxGeometry x="3" y="31" width="60" height="30" as="geometry" />
        </mxCell>
        <mxCell id="I72WQZ2WmEDWENsLwYum-150" style="edgeStyle=orthogonalEdgeStyle;rounded=0;orthogonalLoop=1;jettySize=auto;html=1;exitX=1;exitY=0.5;exitDx=0;exitDy=0;fillColor=#ffe6cc;strokeColor=#d79b00;" edge="1" parent="I72WQZ2WmEDWENsLwYum-78">
          <mxGeometry relative="1" as="geometry">
            <mxPoint y="14.759999999999991" as="sourcePoint" />
            <mxPoint x="20" y="15" as="targetPoint" />
          </mxGeometry>
        </mxCell>
        <mxCell id="I72WQZ2WmEDWENsLwYum-85" value="1" style="text;html=1;strokeColor=none;fillColor=none;align=center;verticalAlign=middle;whiteSpace=wrap;rounded=0;" vertex="1" parent="1">
          <mxGeometry x="180" y="310" width="60" height="30" as="geometry" />
        </mxCell>
        <mxCell id="I72WQZ2WmEDWENsLwYum-86" value="2" style="text;html=1;strokeColor=none;fillColor=none;align=center;verticalAlign=middle;whiteSpace=wrap;rounded=0;" vertex="1" parent="1">
          <mxGeometry x="180" y="360" width="60" height="30" as="geometry" />
        </mxCell>
        <mxCell id="I72WQZ2WmEDWENsLwYum-87" value="..." style="text;html=1;strokeColor=none;fillColor=none;align=center;verticalAlign=middle;whiteSpace=wrap;rounded=0;" vertex="1" parent="1">
          <mxGeometry x="180" y="410" width="60" height="30" as="geometry" />
        </mxCell>
        <mxCell id="I72WQZ2WmEDWENsLwYum-88" value="31" style="text;html=1;strokeColor=none;fillColor=none;align=center;verticalAlign=middle;whiteSpace=wrap;rounded=0;" vertex="1" parent="1">
          <mxGeometry x="180" y="460.5" width="60" height="30" as="geometry" />
        </mxCell>
        <mxCell id="I72WQZ2WmEDWENsLwYum-90" value="" style="shape=mxgraph.sysml.x;" vertex="1" parent="1">
          <mxGeometry x="250" y="270" width="20" height="20" as="geometry" />
        </mxCell>
        <mxCell id="I72WQZ2WmEDWENsLwYum-91" style="edgeStyle=orthogonalEdgeStyle;rounded=0;orthogonalLoop=1;jettySize=auto;html=1;exitX=1;exitY=0.5;exitDx=0;exitDy=0;entryX=0.481;entryY=0.503;entryDx=0;entryDy=0;entryPerimeter=0;" edge="1" parent="1" target="I72WQZ2WmEDWENsLwYum-90">
          <mxGeometry relative="1" as="geometry">
            <mxPoint x="220" y="279.71" as="sourcePoint" />
            <mxPoint x="250" y="280" as="targetPoint" />
          </mxGeometry>
        </mxCell>
        <mxCell id="I72WQZ2WmEDWENsLwYum-94" style="edgeStyle=orthogonalEdgeStyle;rounded=0;orthogonalLoop=1;jettySize=auto;html=1;exitX=1;exitY=0.5;exitDx=0;exitDy=0;entryX=0.283;entryY=0.5;entryDx=0;entryDy=0;entryPerimeter=0;" edge="1" parent="1" target="I72WQZ2WmEDWENsLwYum-18">
          <mxGeometry relative="1" as="geometry">
            <mxPoint x="220" y="326" as="sourcePoint" />
            <mxPoint x="260" y="326.29" as="targetPoint" />
          </mxGeometry>
        </mxCell>
        <mxCell id="I72WQZ2WmEDWENsLwYum-95" style="edgeStyle=orthogonalEdgeStyle;rounded=0;orthogonalLoop=1;jettySize=auto;html=1;exitX=1;exitY=0.5;exitDx=0;exitDy=0;entryX=0.283;entryY=0.5;entryDx=0;entryDy=0;entryPerimeter=0;" edge="1" parent="1" target="I72WQZ2WmEDWENsLwYum-37">
          <mxGeometry relative="1" as="geometry">
            <mxPoint x="220" y="375" as="sourcePoint" />
            <mxPoint x="350" y="360" as="targetPoint" />
          </mxGeometry>
        </mxCell>
        <mxCell id="I72WQZ2WmEDWENsLwYum-96" style="edgeStyle=orthogonalEdgeStyle;rounded=0;orthogonalLoop=1;jettySize=auto;html=1;exitX=1;exitY=0.5;exitDx=0;exitDy=0;entryX=0.283;entryY=0.5;entryDx=0;entryDy=0;entryPerimeter=0;" edge="1" parent="1" target="I72WQZ2WmEDWENsLwYum-44">
          <mxGeometry relative="1" as="geometry">
            <mxPoint x="220" y="429" as="sourcePoint" />
            <mxPoint x="350" y="425" as="targetPoint" />
          </mxGeometry>
        </mxCell>
        <mxCell id="I72WQZ2WmEDWENsLwYum-97" style="edgeStyle=orthogonalEdgeStyle;rounded=0;orthogonalLoop=1;jettySize=auto;html=1;exitX=1;exitY=0.5;exitDx=0;exitDy=0;entryX=0.283;entryY=0.5;entryDx=0;entryDy=0;entryPerimeter=0;" edge="1" parent="1" target="I72WQZ2WmEDWENsLwYum-84">
          <mxGeometry relative="1" as="geometry">
            <mxPoint x="220" y="476.5" as="sourcePoint" />
            <mxPoint x="350" y="478.5" as="targetPoint" />
          </mxGeometry>
        </mxCell>
        <mxCell id="I72WQZ2WmEDWENsLwYum-108" value="" style="group" vertex="1" connectable="0" parent="1">
          <mxGeometry x="570" y="370" width="60" height="120" as="geometry" />
        </mxCell>
        <mxCell id="I72WQZ2WmEDWENsLwYum-109" value="" style="shape=trapezoid;perimeter=trapezoidPerimeter;whiteSpace=wrap;html=1;fixedSize=1;direction=south;" vertex="1" parent="I72WQZ2WmEDWENsLwYum-108">
          <mxGeometry width="60" height="120" as="geometry" />
        </mxCell>
        <mxCell id="I72WQZ2WmEDWENsLwYum-110" value="Select" style="text;html=1;strokeColor=none;fillColor=none;align=center;verticalAlign=middle;whiteSpace=wrap;rounded=0;" vertex="1" parent="I72WQZ2WmEDWENsLwYum-108">
          <mxGeometry y="10" width="60" height="30" as="geometry" />
        </mxCell>
        <mxCell id="I72WQZ2WmEDWENsLwYum-111" value="2" style="text;html=1;strokeColor=none;fillColor=none;align=center;verticalAlign=middle;whiteSpace=wrap;rounded=0;" vertex="1" parent="I72WQZ2WmEDWENsLwYum-108">
          <mxGeometry y="40" width="20" height="30" as="geometry" />
        </mxCell>
        <mxCell id="I72WQZ2WmEDWENsLwYum-112" value="1" style="text;html=1;strokeColor=none;fillColor=none;align=center;verticalAlign=middle;whiteSpace=wrap;rounded=0;" vertex="1" parent="I72WQZ2WmEDWENsLwYum-108">
          <mxGeometry y="20" width="20" height="30" as="geometry" />
        </mxCell>
        <mxCell id="I72WQZ2WmEDWENsLwYum-113" value="0" style="text;html=1;strokeColor=none;fillColor=none;align=center;verticalAlign=middle;whiteSpace=wrap;rounded=0;" vertex="1" parent="I72WQZ2WmEDWENsLwYum-108">
          <mxGeometry width="20" height="30" as="geometry" />
        </mxCell>
        <mxCell id="I72WQZ2WmEDWENsLwYum-114" value="..." style="text;html=1;strokeColor=none;fillColor=none;align=center;verticalAlign=middle;whiteSpace=wrap;rounded=0;" vertex="1" parent="I72WQZ2WmEDWENsLwYum-108">
          <mxGeometry y="60" width="20" height="30" as="geometry" />
        </mxCell>
        <mxCell id="I72WQZ2WmEDWENsLwYum-115" value="31" style="text;html=1;strokeColor=none;fillColor=none;align=center;verticalAlign=middle;whiteSpace=wrap;rounded=0;" vertex="1" parent="I72WQZ2WmEDWENsLwYum-108">
          <mxGeometry y="80" width="20" height="30" as="geometry" />
        </mxCell>
        <mxCell id="I72WQZ2WmEDWENsLwYum-151" value="byp" style="text;html=1;strokeColor=none;fillColor=none;align=center;verticalAlign=middle;whiteSpace=wrap;rounded=0;" vertex="1" parent="I72WQZ2WmEDWENsLwYum-108">
          <mxGeometry y="90" width="20" height="30" as="geometry" />
        </mxCell>
        <mxCell id="I72WQZ2WmEDWENsLwYum-133" style="edgeStyle=orthogonalEdgeStyle;rounded=0;orthogonalLoop=1;jettySize=auto;html=1;exitX=1;exitY=0.5;exitDx=0;exitDy=0;fillColor=#ffe6cc;strokeColor=#d79b00;" edge="1" parent="1" source="I72WQZ2WmEDWENsLwYum-122">
          <mxGeometry relative="1" as="geometry">
            <mxPoint x="110" y="545" as="sourcePoint" />
            <mxPoint x="350" y="279.99999999999994" as="targetPoint" />
            <Array as="points">
              <mxPoint x="330" y="545" />
              <mxPoint x="330" y="280" />
            </Array>
          </mxGeometry>
        </mxCell>
        <mxCell id="I72WQZ2WmEDWENsLwYum-122" value="rd_wdata" style="text;html=1;strokeColor=none;fillColor=none;align=center;verticalAlign=middle;whiteSpace=wrap;rounded=0;" vertex="1" parent="1">
          <mxGeometry x="20" y="530" width="60" height="30" as="geometry" />
        </mxCell>
        <mxCell id="I72WQZ2WmEDWENsLwYum-129" style="edgeStyle=orthogonalEdgeStyle;rounded=0;orthogonalLoop=1;jettySize=auto;html=1;exitX=0.5;exitY=1;exitDx=0;exitDy=0;entryX=0;entryY=0.5;entryDx=0;entryDy=0;" edge="1" parent="1" source="I72WQZ2WmEDWENsLwYum-125" target="I72WQZ2WmEDWENsLwYum-104">
          <mxGeometry relative="1" as="geometry">
            <Array as="points">
              <mxPoint x="555" y="235" />
            </Array>
          </mxGeometry>
        </mxCell>
        <mxCell id="I72WQZ2WmEDWENsLwYum-125" value="&#39;0" style="text;html=1;strokeColor=none;fillColor=none;align=center;verticalAlign=middle;whiteSpace=wrap;rounded=0;" vertex="1" parent="1">
          <mxGeometry x="545" y="204" width="20" height="20" as="geometry" />
        </mxCell>
        <mxCell id="I72WQZ2WmEDWENsLwYum-128" style="edgeStyle=orthogonalEdgeStyle;rounded=0;orthogonalLoop=1;jettySize=auto;html=1;exitX=0.5;exitY=1;exitDx=0;exitDy=0;entryX=0;entryY=0.5;entryDx=0;entryDy=0;" edge="1" parent="1" source="I72WQZ2WmEDWENsLwYum-127" target="I72WQZ2WmEDWENsLwYum-113">
          <mxGeometry relative="1" as="geometry">
            <Array as="points">
              <mxPoint x="555" y="385" />
            </Array>
          </mxGeometry>
        </mxCell>
        <mxCell id="I72WQZ2WmEDWENsLwYum-127" value="&#39;0" style="text;html=1;strokeColor=none;fillColor=none;align=center;verticalAlign=middle;whiteSpace=wrap;rounded=0;" vertex="1" parent="1">
          <mxGeometry x="545" y="354" width="20" height="20" as="geometry" />
        </mxCell>
        <mxCell id="I72WQZ2WmEDWENsLwYum-131" style="edgeStyle=orthogonalEdgeStyle;rounded=0;orthogonalLoop=1;jettySize=auto;html=1;entryX=0;entryY=0.5;entryDx=0;entryDy=0;fillColor=#e1d5e7;strokeColor=#9673a6;" edge="1" parent="1" target="I72WQZ2WmEDWENsLwYum-112">
          <mxGeometry relative="1" as="geometry">
            <mxPoint x="400" y="280" as="sourcePoint" />
            <mxPoint x="580" y="265" as="targetPoint" />
            <Array as="points">
              <mxPoint x="520" y="280" />
              <mxPoint x="520" y="405" />
            </Array>
          </mxGeometry>
        </mxCell>
        <mxCell id="I72WQZ2WmEDWENsLwYum-134" style="edgeStyle=orthogonalEdgeStyle;rounded=0;orthogonalLoop=1;jettySize=auto;html=1;entryX=0;entryY=0.5;entryDx=0;entryDy=0;fillColor=#e1d5e7;strokeColor=#9673a6;" edge="1" parent="1" target="I72WQZ2WmEDWENsLwYum-111">
          <mxGeometry relative="1" as="geometry">
            <mxPoint x="400" y="340.03" as="sourcePoint" />
            <mxPoint x="570" y="465.03" as="targetPoint" />
            <Array as="points">
              <mxPoint x="480" y="340" />
              <mxPoint x="480" y="425" />
            </Array>
          </mxGeometry>
        </mxCell>
        <mxCell id="I72WQZ2WmEDWENsLwYum-135" style="edgeStyle=orthogonalEdgeStyle;rounded=0;orthogonalLoop=1;jettySize=auto;html=1;entryX=0;entryY=0.5;entryDx=0;entryDy=0;fillColor=#e1d5e7;strokeColor=#9673a6;" edge="1" parent="1" target="I72WQZ2WmEDWENsLwYum-114">
          <mxGeometry relative="1" as="geometry">
            <mxPoint x="400" y="400" as="sourcePoint" />
            <mxPoint x="570" y="484.97" as="targetPoint" />
            <Array as="points">
              <mxPoint x="460" y="400" />
              <mxPoint x="460" y="445" />
            </Array>
          </mxGeometry>
        </mxCell>
        <mxCell id="I72WQZ2WmEDWENsLwYum-118" style="edgeStyle=orthogonalEdgeStyle;rounded=0;orthogonalLoop=1;jettySize=auto;html=1;exitX=1;exitY=0.5;exitDx=0;exitDy=0;entryX=0;entryY=0.5;entryDx=0;entryDy=0;" edge="1" parent="1" target="I72WQZ2WmEDWENsLwYum-102">
          <mxGeometry relative="1" as="geometry">
            <mxPoint x="400" y="280" as="sourcePoint" />
            <mxPoint x="530" y="265" as="targetPoint" />
            <Array as="points">
              <mxPoint x="430" y="280" />
              <mxPoint x="430" y="255" />
            </Array>
          </mxGeometry>
        </mxCell>
        <mxCell id="I72WQZ2WmEDWENsLwYum-119" style="edgeStyle=orthogonalEdgeStyle;rounded=0;orthogonalLoop=1;jettySize=auto;html=1;exitX=1;exitY=0.5;exitDx=0;exitDy=0;entryX=0;entryY=0.5;entryDx=0;entryDy=0;" edge="1" parent="1" target="I72WQZ2WmEDWENsLwYum-101">
          <mxGeometry relative="1" as="geometry">
            <mxPoint x="399.49" y="340" as="sourcePoint" />
            <mxPoint x="569.49" y="295" as="targetPoint" />
            <Array as="points">
              <mxPoint x="460" y="340" />
              <mxPoint x="460" y="275" />
            </Array>
          </mxGeometry>
        </mxCell>
        <mxCell id="I72WQZ2WmEDWENsLwYum-120" style="edgeStyle=orthogonalEdgeStyle;rounded=0;orthogonalLoop=1;jettySize=auto;html=1;entryX=0;entryY=0.5;entryDx=0;entryDy=0;" edge="1" parent="1" target="I72WQZ2WmEDWENsLwYum-105">
          <mxGeometry relative="1" as="geometry">
            <mxPoint x="399" y="400" as="sourcePoint" />
            <mxPoint x="569.49" y="334.51" as="targetPoint" />
            <Array as="points">
              <mxPoint x="500" y="400" />
              <mxPoint x="500" y="295" />
            </Array>
          </mxGeometry>
        </mxCell>
        <mxCell id="I72WQZ2WmEDWENsLwYum-136" style="edgeStyle=orthogonalEdgeStyle;rounded=0;orthogonalLoop=1;jettySize=auto;html=1;entryX=0;entryY=0.5;entryDx=0;entryDy=0;fillColor=#e1d5e7;strokeColor=#9673a6;" edge="1" parent="1" target="I72WQZ2WmEDWENsLwYum-115">
          <mxGeometry relative="1" as="geometry">
            <mxPoint x="400" y="461" as="sourcePoint" />
            <mxPoint x="570" y="506" as="targetPoint" />
            <Array as="points">
              <mxPoint x="550" y="461" />
              <mxPoint x="550" y="465" />
            </Array>
          </mxGeometry>
        </mxCell>
        <mxCell id="I72WQZ2WmEDWENsLwYum-121" style="edgeStyle=orthogonalEdgeStyle;rounded=0;orthogonalLoop=1;jettySize=auto;html=1;exitX=1;exitY=0.5;exitDx=0;exitDy=0;entryX=0;entryY=0.5;entryDx=0;entryDy=0;" edge="1" parent="1" target="I72WQZ2WmEDWENsLwYum-106">
          <mxGeometry relative="1" as="geometry">
            <mxPoint x="398.98" y="460.5" as="sourcePoint" />
            <mxPoint x="570" y="355.99" as="targetPoint" />
            <Array as="points">
              <mxPoint x="540" y="460" />
              <mxPoint x="540" y="315" />
            </Array>
          </mxGeometry>
        </mxCell>
        <mxCell id="I72WQZ2WmEDWENsLwYum-137" value="rs1_rdata" style="text;html=1;strokeColor=none;fillColor=none;align=center;verticalAlign=middle;whiteSpace=wrap;rounded=0;" vertex="1" parent="1">
          <mxGeometry x="680" y="265" width="60" height="30" as="geometry" />
        </mxCell>
        <mxCell id="I72WQZ2WmEDWENsLwYum-138" value="rs2_rdata" style="text;html=1;strokeColor=none;fillColor=none;align=center;verticalAlign=middle;whiteSpace=wrap;rounded=0;" vertex="1" parent="1">
          <mxGeometry x="680" y="415" width="60" height="30" as="geometry" />
        </mxCell>
        <mxCell id="I72WQZ2WmEDWENsLwYum-139" style="edgeStyle=orthogonalEdgeStyle;rounded=0;orthogonalLoop=1;jettySize=auto;html=1;" edge="1" parent="1" source="I72WQZ2WmEDWENsLwYum-109" target="I72WQZ2WmEDWENsLwYum-138">
          <mxGeometry relative="1" as="geometry" />
        </mxCell>
        <mxCell id="I72WQZ2WmEDWENsLwYum-140" style="edgeStyle=orthogonalEdgeStyle;rounded=0;orthogonalLoop=1;jettySize=auto;html=1;exitX=0.5;exitY=0;exitDx=0;exitDy=0;entryX=0;entryY=0.5;entryDx=0;entryDy=0;" edge="1" parent="1" source="I72WQZ2WmEDWENsLwYum-10" target="I72WQZ2WmEDWENsLwYum-137">
          <mxGeometry relative="1" as="geometry" />
        </mxCell>
        <mxCell id="I72WQZ2WmEDWENsLwYum-142" style="edgeStyle=orthogonalEdgeStyle;rounded=0;orthogonalLoop=1;jettySize=auto;html=1;exitX=1;exitY=0.5;exitDx=0;exitDy=0;fillColor=#ffe6cc;strokeColor=#d79b00;entryX=0;entryY=1;entryDx=0;entryDy=0;" edge="1" parent="1" target="I72WQZ2WmEDWENsLwYum-106">
          <mxGeometry relative="1" as="geometry">
            <mxPoint x="330" y="544.58" as="sourcePoint" />
            <mxPoint x="390" y="544.58" as="targetPoint" />
            <Array as="points">
              <mxPoint x="430" y="545" />
              <mxPoint x="430" y="330" />
            </Array>
          </mxGeometry>
        </mxCell>
        <mxCell id="I72WQZ2WmEDWENsLwYum-143" style="edgeStyle=orthogonalEdgeStyle;rounded=0;orthogonalLoop=1;jettySize=auto;html=1;exitX=1;exitY=0.5;exitDx=0;exitDy=0;entryX=0;entryY=1;entryDx=0;entryDy=0;fillColor=#ffe6cc;strokeColor=#d79b00;" edge="1" parent="1" target="I72WQZ2WmEDWENsLwYum-115">
          <mxGeometry relative="1" as="geometry">
            <mxPoint x="430" y="544.58" as="sourcePoint" />
            <mxPoint x="490" y="544.58" as="targetPoint" />
            <Array as="points">
              <mxPoint x="500" y="545" />
              <mxPoint x="500" y="480" />
            </Array>
          </mxGeometry>
        </mxCell>
        <mxCell id="I72WQZ2WmEDWENsLwYum-145" style="edgeStyle=orthogonalEdgeStyle;rounded=0;orthogonalLoop=1;jettySize=auto;html=1;exitX=1;exitY=0.5;exitDx=0;exitDy=0;entryX=0.599;entryY=0.077;entryDx=0;entryDy=0;entryPerimeter=0;fillColor=#f8cecc;strokeColor=#b85450;exitPerimeter=0;" edge="1" parent="1" source="I72WQZ2WmEDWENsLwYum-163" target="I72WQZ2WmEDWENsLwYum-99">
          <mxGeometry relative="1" as="geometry">
            <Array as="points">
              <mxPoint x="310" y="200" />
              <mxPoint x="310" y="190" />
              <mxPoint x="606" y="190" />
            </Array>
          </mxGeometry>
        </mxCell>
        <mxCell id="I72WQZ2WmEDWENsLwYum-159" value="rs1_bypass" style="edgeLabel;html=1;align=center;verticalAlign=middle;resizable=0;points=[];" vertex="1" connectable="0" parent="I72WQZ2WmEDWENsLwYum-145">
          <mxGeometry x="-0.6931" relative="1" as="geometry">
            <mxPoint as="offset" />
          </mxGeometry>
        </mxCell>
        <mxCell id="I72WQZ2WmEDWENsLwYum-147" style="edgeStyle=orthogonalEdgeStyle;rounded=0;orthogonalLoop=1;jettySize=auto;html=1;exitX=1;exitY=0.5;exitDx=0;exitDy=0;entryX=0.637;entryY=0.06;entryDx=0;entryDy=0;entryPerimeter=0;fillColor=#f8cecc;strokeColor=#b85450;exitPerimeter=0;" edge="1" parent="1" source="I72WQZ2WmEDWENsLwYum-162" target="I72WQZ2WmEDWENsLwYum-110">
          <mxGeometry relative="1" as="geometry">
            <Array as="points">
              <mxPoint x="320" y="235" />
              <mxPoint x="320" y="205" />
              <mxPoint x="620" y="205" />
              <mxPoint x="620" y="360" />
              <mxPoint x="608" y="360" />
            </Array>
          </mxGeometry>
        </mxCell>
        <mxCell id="I72WQZ2WmEDWENsLwYum-160" value="rs2_bypass" style="edgeLabel;html=1;align=center;verticalAlign=middle;resizable=0;points=[];" vertex="1" connectable="0" parent="I72WQZ2WmEDWENsLwYum-147">
          <mxGeometry x="-0.6954" y="-1" relative="1" as="geometry">
            <mxPoint as="offset" />
          </mxGeometry>
        </mxCell>
        <mxCell id="I72WQZ2WmEDWENsLwYum-107" value="" style="group" vertex="1" connectable="0" parent="1">
          <mxGeometry x="570" y="220" width="60" height="120" as="geometry" />
        </mxCell>
        <mxCell id="I72WQZ2WmEDWENsLwYum-10" value="" style="shape=trapezoid;perimeter=trapezoidPerimeter;whiteSpace=wrap;html=1;fixedSize=1;direction=south;" vertex="1" parent="I72WQZ2WmEDWENsLwYum-107">
          <mxGeometry width="60" height="120" as="geometry" />
        </mxCell>
        <mxCell id="I72WQZ2WmEDWENsLwYum-99" value="Select" style="text;html=1;strokeColor=none;fillColor=none;align=center;verticalAlign=middle;whiteSpace=wrap;rounded=0;" vertex="1" parent="I72WQZ2WmEDWENsLwYum-107">
          <mxGeometry y="10" width="60" height="30" as="geometry" />
        </mxCell>
        <mxCell id="I72WQZ2WmEDWENsLwYum-101" value="2" style="text;html=1;strokeColor=none;fillColor=none;align=center;verticalAlign=middle;whiteSpace=wrap;rounded=0;" vertex="1" parent="I72WQZ2WmEDWENsLwYum-107">
          <mxGeometry y="40" width="20" height="30" as="geometry" />
        </mxCell>
        <mxCell id="I72WQZ2WmEDWENsLwYum-102" value="1" style="text;html=1;strokeColor=none;fillColor=none;align=center;verticalAlign=middle;whiteSpace=wrap;rounded=0;" vertex="1" parent="I72WQZ2WmEDWENsLwYum-107">
          <mxGeometry y="20" width="20" height="30" as="geometry" />
        </mxCell>
        <mxCell id="I72WQZ2WmEDWENsLwYum-104" value="0" style="text;html=1;strokeColor=none;fillColor=none;align=center;verticalAlign=middle;whiteSpace=wrap;rounded=0;" vertex="1" parent="I72WQZ2WmEDWENsLwYum-107">
          <mxGeometry width="20" height="30" as="geometry" />
        </mxCell>
        <mxCell id="I72WQZ2WmEDWENsLwYum-105" value="..." style="text;html=1;strokeColor=none;fillColor=none;align=center;verticalAlign=middle;whiteSpace=wrap;rounded=0;" vertex="1" parent="I72WQZ2WmEDWENsLwYum-107">
          <mxGeometry y="60" width="20" height="30" as="geometry" />
        </mxCell>
        <mxCell id="I72WQZ2WmEDWENsLwYum-106" value="31" style="text;html=1;strokeColor=none;fillColor=none;align=center;verticalAlign=middle;whiteSpace=wrap;rounded=0;" vertex="1" parent="I72WQZ2WmEDWENsLwYum-107">
          <mxGeometry y="80" width="20" height="30" as="geometry" />
        </mxCell>
        <mxCell id="I72WQZ2WmEDWENsLwYum-152" value="byp" style="text;html=1;strokeColor=none;fillColor=none;align=center;verticalAlign=middle;whiteSpace=wrap;rounded=0;" vertex="1" parent="I72WQZ2WmEDWENsLwYum-107">
          <mxGeometry y="90" width="20" height="30" as="geometry" />
        </mxCell>
        <mxCell id="I72WQZ2WmEDWENsLwYum-155" value="Posedge&lt;br&gt;Triggered" style="text;html=1;strokeColor=none;fillColor=none;align=center;verticalAlign=middle;whiteSpace=wrap;rounded=0;" vertex="1" parent="1">
          <mxGeometry x="345" y="235" width="60" height="30" as="geometry" />
        </mxCell>
        <mxCell id="I72WQZ2WmEDWENsLwYum-158" value="==" style="ellipse;whiteSpace=wrap;html=1;aspect=fixed;" vertex="1" parent="1">
          <mxGeometry x="180" y="184" width="26" height="26" as="geometry" />
        </mxCell>
        <mxCell id="I72WQZ2WmEDWENsLwYum-162" value="" style="shape=or;whiteSpace=wrap;html=1;" vertex="1" parent="1">
          <mxGeometry x="280" y="220" width="20" height="30" as="geometry" />
        </mxCell>
        <mxCell id="I72WQZ2WmEDWENsLwYum-163" value="" style="shape=or;whiteSpace=wrap;html=1;" vertex="1" parent="1">
          <mxGeometry x="280" y="185" width="20" height="30" as="geometry" />
        </mxCell>
        <mxCell id="I72WQZ2WmEDWENsLwYum-164" value="==" style="ellipse;whiteSpace=wrap;html=1;aspect=fixed;" vertex="1" parent="1">
          <mxGeometry x="180" y="215" width="26" height="26" as="geometry" />
        </mxCell>
        <mxCell id="I72WQZ2WmEDWENsLwYum-165" style="edgeStyle=orthogonalEdgeStyle;rounded=0;orthogonalLoop=1;jettySize=auto;html=1;exitX=1;exitY=0.5;exitDx=0;exitDy=0;fillColor=#ffe6cc;strokeColor=#d79b00;" edge="1" parent="1">
          <mxGeometry relative="1" as="geometry">
            <mxPoint x="80" y="355.21" as="sourcePoint" />
            <mxPoint x="150" y="355.21" as="targetPoint" />
          </mxGeometry>
        </mxCell>
        <mxCell id="I72WQZ2WmEDWENsLwYum-166" style="edgeStyle=orthogonalEdgeStyle;rounded=0;orthogonalLoop=1;jettySize=auto;html=1;exitX=1;exitY=0.5;exitDx=0;exitDy=0;fillColor=#ffe6cc;strokeColor=#d79b00;" edge="1" parent="1" source="I72WQZ2WmEDWENsLwYum-4">
          <mxGeometry relative="1" as="geometry">
            <mxPoint x="112" y="234.99999999999997" as="sourcePoint" />
            <mxPoint x="182" y="234.99999999999997" as="targetPoint" />
            <Array as="points">
              <mxPoint x="130" y="355" />
              <mxPoint x="130" y="235" />
            </Array>
          </mxGeometry>
        </mxCell>
        <mxCell id="I72WQZ2WmEDWENsLwYum-167" style="edgeStyle=orthogonalEdgeStyle;rounded=0;orthogonalLoop=1;jettySize=auto;html=1;exitX=1;exitY=0.5;exitDx=0;exitDy=0;entryX=0;entryY=0.75;entryDx=0;entryDy=0;entryPerimeter=0;" edge="1" parent="1" target="I72WQZ2WmEDWENsLwYum-162">
          <mxGeometry relative="1" as="geometry">
            <mxPoint x="76" y="385" as="sourcePoint" />
            <mxPoint x="276.0000000000001" y="242.5" as="targetPoint" />
            <Array as="points">
              <mxPoint x="136" y="385" />
              <mxPoint x="136" y="243" />
            </Array>
          </mxGeometry>
        </mxCell>
        <mxCell id="I72WQZ2WmEDWENsLwYum-168" style="edgeStyle=orthogonalEdgeStyle;rounded=0;orthogonalLoop=1;jettySize=auto;html=1;fillColor=#ffe6cc;strokeColor=#d79b00;entryX=0;entryY=1;entryDx=0;entryDy=0;" edge="1" parent="1" target="I72WQZ2WmEDWENsLwYum-158">
          <mxGeometry relative="1" as="geometry">
            <mxPoint x="130" y="235" as="sourcePoint" />
            <mxPoint x="181" y="208.99999999999997" as="targetPoint" />
            <Array as="points">
              <mxPoint x="130" y="235" />
              <mxPoint x="130" y="206" />
            </Array>
          </mxGeometry>
        </mxCell>
        <mxCell id="I72WQZ2WmEDWENsLwYum-169" style="edgeStyle=orthogonalEdgeStyle;rounded=0;orthogonalLoop=1;jettySize=auto;html=1;exitX=1;exitY=0.5;exitDx=0;exitDy=0;entryX=0;entryY=0.25;entryDx=0;entryDy=0;entryPerimeter=0;" edge="1" parent="1" source="I72WQZ2WmEDWENsLwYum-158" target="I72WQZ2WmEDWENsLwYum-163">
          <mxGeometry relative="1" as="geometry" />
        </mxCell>
        <mxCell id="I72WQZ2WmEDWENsLwYum-170" style="edgeStyle=orthogonalEdgeStyle;rounded=0;orthogonalLoop=1;jettySize=auto;html=1;exitX=1;exitY=0.5;exitDx=0;exitDy=0;entryX=0;entryY=0.25;entryDx=0;entryDy=0;entryPerimeter=0;" edge="1" parent="1" source="I72WQZ2WmEDWENsLwYum-164" target="I72WQZ2WmEDWENsLwYum-162">
          <mxGeometry relative="1" as="geometry" />
        </mxCell>
        <mxCell id="I72WQZ2WmEDWENsLwYum-173" style="edgeStyle=orthogonalEdgeStyle;rounded=0;orthogonalLoop=1;jettySize=auto;html=1;entryX=0;entryY=0.75;entryDx=0;entryDy=0;entryPerimeter=0;" edge="1" parent="1" target="I72WQZ2WmEDWENsLwYum-163">
          <mxGeometry relative="1" as="geometry">
            <mxPoint x="260" y="242" as="sourcePoint" />
            <mxPoint x="280" y="209.5" as="targetPoint" />
            <Array as="points">
              <mxPoint x="260" y="207" />
            </Array>
          </mxGeometry>
        </mxCell>
        <mxCell id="I72WQZ2WmEDWENsLwYum-174" style="edgeStyle=orthogonalEdgeStyle;rounded=0;orthogonalLoop=1;jettySize=auto;html=1;exitX=1;exitY=0.5;exitDx=0;exitDy=0;fillColor=#d5e8d4;strokeColor=#82b366;entryX=0;entryY=0;entryDx=0;entryDy=0;" edge="1" parent="1" target="I72WQZ2WmEDWENsLwYum-164">
          <mxGeometry relative="1" as="geometry">
            <mxPoint x="80" y="174.99999999999997" as="sourcePoint" />
            <mxPoint x="180" y="222" as="targetPoint" />
            <Array as="points">
              <mxPoint x="140" y="175" />
              <mxPoint x="140" y="219" />
              <mxPoint x="180" y="219" />
            </Array>
          </mxGeometry>
        </mxCell>
        <mxCell id="I72WQZ2WmEDWENsLwYum-175" style="edgeStyle=orthogonalEdgeStyle;rounded=0;orthogonalLoop=1;jettySize=auto;html=1;exitX=1;exitY=0.5;exitDx=0;exitDy=0;fillColor=#dae8fc;strokeColor=#6c8ebf;entryX=0;entryY=0;entryDx=0;entryDy=0;" edge="1" parent="1" target="I72WQZ2WmEDWENsLwYum-158">
          <mxGeometry relative="1" as="geometry">
            <mxPoint x="80" y="158.99999999999997" as="sourcePoint" />
            <mxPoint x="184" y="203" as="targetPoint" />
            <Array as="points">
              <mxPoint x="160" y="159" />
              <mxPoint x="160" y="188" />
              <mxPoint x="184" y="188" />
            </Array>
          </mxGeometry>
        </mxCell>
        <mxCell id="I72WQZ2WmEDWENsLwYum-176" value="AND not x0" style="text;html=1;strokeColor=none;fillColor=none;align=center;verticalAlign=middle;whiteSpace=wrap;rounded=0;" vertex="1" parent="1">
          <mxGeometry x="200" y="199" width="60" height="30" as="geometry" />
        </mxCell>
      </root>
    </mxGraphModel>
  </diagram>
</mxfile>
